<svg width="136" height="29" viewBox="0 0 136 29" fill="none" xmlns="http://www.w3.org/2000/svg">
<path d="M0 14C0 6.26801 6.26801 0 14 0H122C129.732 0 136 6.26801 136 14V15C136 22.732 129.732 29 122 29H14C6.26801 29 0 22.732 0 15V14Z" fill="white"/>
<path d="M104.117 17.3135V10.7681H105.088V11.7567H105.156C105.276 11.4328 105.492 11.1701 105.804 10.9684C106.117 10.7667 106.469 10.6658 106.861 10.6658C106.935 10.6658 107.027 10.6672 107.138 10.6701C107.249 10.6729 107.332 10.6772 107.389 10.6828V11.7056C107.355 11.6971 107.277 11.6843 107.155 11.6672C107.036 11.6473 106.909 11.6374 106.776 11.6374C106.457 11.6374 106.173 11.7042 105.923 11.8377C105.676 11.9684 105.48 12.1502 105.335 12.3831C105.193 12.6132 105.122 12.876 105.122 13.1715V17.3135H104.117Z" fill="black"/>
<path d="M99.6155 17.4499C99.0246 17.4499 98.5061 17.3093 98.0601 17.028C97.6169 16.7468 97.2703 16.3533 97.0203 15.8476C96.7732 15.3419 96.6496 14.751 96.6496 14.0749C96.6496 13.3931 96.7732 12.7979 97.0203 12.2894C97.2703 11.7808 97.6169 11.386 98.0601 11.1047C98.5061 10.8235 99.0246 10.6828 99.6155 10.6828C100.206 10.6828 100.723 10.8235 101.167 11.1047C101.613 11.386 101.959 11.7808 102.206 12.2894C102.456 12.7979 102.581 13.3931 102.581 14.0749C102.581 14.751 102.456 15.3419 102.206 15.8476C101.959 16.3533 101.613 16.7468 101.167 17.028C100.723 17.3093 100.206 17.4499 99.6155 17.4499ZM99.6155 16.5465C100.064 16.5465 100.434 16.4314 100.723 16.2013C101.013 15.9712 101.228 15.6686 101.367 15.2936C101.506 14.9186 101.576 14.5124 101.576 14.0749C101.576 13.6374 101.506 13.2297 101.367 12.8519C101.228 12.474 101.013 12.1686 100.723 11.9357C100.434 11.7027 100.064 11.5862 99.6155 11.5862C99.1666 11.5862 98.7973 11.7027 98.5075 11.9357C98.2178 12.1686 98.0033 12.474 97.8641 12.8519C97.7249 13.2297 97.6553 13.6374 97.6553 14.0749C97.6553 14.5124 97.7249 14.9186 97.8641 15.2936C98.0033 15.6686 98.2178 15.9712 98.5075 16.2013C98.7973 16.4314 99.1666 16.5465 99.6155 16.5465Z" fill="black"/>
<path d="M92.6908 17.3135V10.7681H93.6624V11.7567H93.7306C93.8499 11.4328 94.0658 11.1701 94.3783 10.9684C94.6908 10.7667 95.0431 10.6658 95.4351 10.6658C95.509 10.6658 95.6013 10.6672 95.7121 10.6701C95.8229 10.6729 95.9067 10.6772 95.9635 10.6828V11.7056C95.9294 11.6971 95.8513 11.6843 95.7291 11.6672C95.6098 11.6473 95.4834 11.6374 95.3499 11.6374C95.0317 11.6374 94.7476 11.7042 94.4976 11.8377C94.2505 11.9684 94.0544 12.1502 93.9095 12.3831C93.7675 12.6132 93.6965 12.876 93.6965 13.1715V17.3135H92.6908Z" fill="black"/>
<path d="M88.226 17.3135V10.7681H89.1975V11.7567H89.2657C89.385 11.4328 89.601 11.1701 89.9135 10.9684C90.226 10.7667 90.5782 10.6658 90.9703 10.6658C91.0441 10.6658 91.1365 10.6672 91.2473 10.6701C91.3581 10.6729 91.4419 10.6772 91.4987 10.6828V11.7056C91.4646 11.6971 91.3865 11.6843 91.2643 11.6672C91.145 11.6473 91.0186 11.6374 90.885 11.6374C90.5669 11.6374 90.2828 11.7042 90.0328 11.8377C89.7856 11.9684 89.5896 12.1502 89.4447 12.3831C89.3027 12.6132 89.2316 12.876 89.2316 13.1715V17.3135H88.226Z" fill="black"/>
<path d="M81.1904 17.3135V8.58624H86.4575V9.52374H82.2473V12.4726H86.1848V13.4101H82.2473V16.376H86.5257V17.3135H81.1904Z" fill="black"/>
<path d="M73.2142 17.3135V10.7681H74.1858V11.7567H74.254C74.3733 11.4328 74.5892 11.1701 74.9017 10.9684C75.2142 10.7667 75.5665 10.6658 75.9585 10.6658C76.0324 10.6658 76.1247 10.6672 76.2355 10.6701C76.3463 10.6729 76.4301 10.6772 76.487 10.6828V11.7056C76.4529 11.6971 76.3747 11.6843 76.2526 11.6672C76.1333 11.6473 76.0068 11.6374 75.8733 11.6374C75.5551 11.6374 75.271 11.7042 75.021 11.8377C74.7739 11.9684 74.5779 12.1502 74.433 12.3831C74.2909 12.6132 74.2199 12.876 74.2199 13.1715V17.3135H73.2142Z" fill="black"/>
<path d="M68.3786 17.4669C67.9639 17.4669 67.5875 17.3888 67.2494 17.2325C66.9113 17.0735 66.6428 16.8448 66.444 16.5465C66.2451 16.2453 66.1457 15.8817 66.1457 15.4556C66.1457 15.0806 66.2196 14.7766 66.3673 14.5436C66.515 14.3078 66.7125 14.1232 66.9596 13.9896C67.2068 13.8561 67.4795 13.7567 67.7778 13.6914C68.0789 13.6232 68.3815 13.5692 68.6855 13.5294C69.0832 13.4783 69.4056 13.4399 69.6528 13.4144C69.9028 13.386 70.0846 13.3391 70.1982 13.2737C70.3147 13.2084 70.373 13.0948 70.373 12.9328V12.8987C70.373 12.4783 70.2579 12.1516 70.0278 11.9186C69.8005 11.6857 69.4554 11.5692 68.9923 11.5692C68.5122 11.5692 68.1357 11.6743 67.863 11.8845C67.5903 12.0948 67.3985 12.3192 67.2877 12.5578L66.3332 12.2169C66.5036 11.8192 66.7309 11.5095 67.015 11.2879C67.3019 11.0635 67.6144 10.9073 67.9525 10.8192C68.2934 10.7283 68.6286 10.6828 68.9582 10.6828C69.1684 10.6828 69.4099 10.7084 69.6826 10.7595C69.9582 10.8078 70.2238 10.9087 70.4795 11.0621C70.738 11.2155 70.9525 11.447 71.123 11.7567C71.2934 12.0664 71.3786 12.4811 71.3786 13.001V17.3135H70.373V16.4271H70.3218C70.2536 16.5692 70.14 16.7212 69.9809 16.8831C69.8218 17.045 69.6102 17.1828 69.346 17.2965C69.0818 17.4101 68.7593 17.4669 68.3786 17.4669ZM68.5321 16.5635C68.9298 16.5635 69.265 16.4854 69.5377 16.3291C69.8133 16.1729 70.0207 15.9712 70.1599 15.724C70.3019 15.4769 70.373 15.2169 70.373 14.9442V14.0237C70.3303 14.0749 70.2366 14.1218 70.0917 14.1644C69.9497 14.2041 69.7849 14.2396 69.5974 14.2709C69.4127 14.2993 69.2323 14.3249 69.0562 14.3476C68.8829 14.3675 68.7423 14.3845 68.6343 14.3987C68.373 14.4328 68.1286 14.4882 67.9014 14.5649C67.6769 14.6388 67.4951 14.751 67.3559 14.9016C67.2196 15.0493 67.1514 15.251 67.1514 15.5067C67.1514 15.8561 67.2806 16.1203 67.5392 16.2993C67.8005 16.4754 68.1315 16.5635 68.5321 16.5635Z" fill="black"/>
<path d="M64.9397 10.7681V11.6203H61.5477V10.7681H64.9397ZM62.5363 9.19989H63.542V15.4385C63.542 15.7226 63.5832 15.9357 63.6656 16.0777C63.7508 16.2169 63.8587 16.3107 63.9894 16.359C64.123 16.4044 64.2636 16.4272 64.4113 16.4272C64.5221 16.4272 64.613 16.4215 64.684 16.4101C64.7551 16.3959 64.8119 16.3845 64.8545 16.376L65.059 17.2794C64.9909 17.305 64.8957 17.3306 64.7735 17.3561C64.6514 17.3845 64.4965 17.3988 64.309 17.3988C64.0249 17.3988 63.7465 17.3377 63.4738 17.2155C63.2039 17.0934 62.9795 16.9073 62.8005 16.6573C62.6244 16.4073 62.5363 16.0919 62.5363 15.7113V9.19989Z" fill="black"/>
<path d="M57.2181 17.3135V10.7681H58.1897V11.7567H58.2579C58.3772 11.4328 58.5931 11.1701 58.9056 10.9684C59.2181 10.7667 59.5704 10.6658 59.9625 10.6658C60.0363 10.6658 60.1286 10.6672 60.2394 10.6701C60.3502 10.6729 60.434 10.6772 60.4909 10.6828V11.7056C60.4568 11.6971 60.3787 11.6843 60.2565 11.6672C60.1372 11.6473 60.0108 11.6374 59.8772 11.6374C59.559 11.6374 59.275 11.7042 59.025 11.8377C58.7778 11.9684 58.5818 12.1502 58.4369 12.3831C58.2948 12.6132 58.2238 12.876 58.2238 13.1715V17.3135H57.2181Z" fill="black"/>
<path d="M52.7171 17.4499C52.1262 17.4499 51.6077 17.3093 51.1617 17.028C50.7185 16.7468 50.3719 16.3533 50.1219 15.8476C49.8747 15.3419 49.7512 14.751 49.7512 14.0749C49.7512 13.3931 49.8747 12.7979 50.1219 12.2894C50.3719 11.7808 50.7185 11.386 51.1617 11.1047C51.6077 10.8235 52.1262 10.6828 52.7171 10.6828C53.308 10.6828 53.825 10.8235 54.2682 11.1047C54.7142 11.386 55.0608 11.7808 55.308 12.2894C55.558 12.7979 55.683 13.3931 55.683 14.0749C55.683 14.751 55.558 15.3419 55.308 15.8476C55.0608 16.3533 54.7142 16.7468 54.2682 17.028C53.825 17.3093 53.308 17.4499 52.7171 17.4499ZM52.7171 16.5465C53.1659 16.5465 53.5353 16.4314 53.825 16.2013C54.1148 15.9712 54.3293 15.6686 54.4685 15.2936C54.6077 14.9186 54.6773 14.5124 54.6773 14.0749C54.6773 13.6374 54.6077 13.2297 54.4685 12.8519C54.3293 12.474 54.1148 12.1686 53.825 11.9357C53.5353 11.7027 53.1659 11.5862 52.7171 11.5862C52.2682 11.5862 51.8989 11.7027 51.6091 11.9357C51.3193 12.1686 51.1049 12.474 50.9656 12.8519C50.8264 13.2297 50.7568 13.6374 50.7568 14.0749C50.7568 14.5124 50.8264 14.9186 50.9656 15.2936C51.1049 15.6686 51.3193 15.9712 51.6091 16.2013C51.8989 16.4314 52.2682 16.5465 52.7171 16.5465Z" fill="black"/>
<path d="M42.7455 19.7681V10.7681H43.7171V11.8078H43.8364C43.9103 11.6942 44.0125 11.5493 44.1432 11.3732C44.2767 11.1942 44.4671 11.0351 44.7142 10.8959C44.9642 10.7539 45.3023 10.6828 45.7284 10.6828C46.2796 10.6828 46.7654 10.8206 47.1858 11.0962C47.6063 11.3718 47.9344 11.7624 48.1702 12.2681C48.406 12.7737 48.5239 13.3703 48.5239 14.0578C48.5239 14.751 48.406 15.3519 48.1702 15.8604C47.9344 16.3661 47.6077 16.7581 47.1901 17.0365C46.7725 17.3121 46.2909 17.4499 45.7455 17.4499C45.325 17.4499 44.9884 17.3803 44.7355 17.2411C44.4827 17.099 44.2881 16.9385 44.1517 16.7595C44.0154 16.5777 43.9103 16.4271 43.8364 16.3078H43.7512V19.7681H42.7455ZM43.7341 14.0408C43.7341 14.5351 43.8066 14.9712 43.9514 15.349C44.0963 15.724 44.308 16.0181 44.5864 16.2311C44.8648 16.4414 45.2057 16.5465 45.6091 16.5465C46.0296 16.5465 46.3804 16.4357 46.6617 16.2141C46.9458 15.9896 47.1588 15.6885 47.3009 15.3107C47.4458 14.93 47.5182 14.5067 47.5182 14.0408C47.5182 13.5806 47.4472 13.1658 47.3051 12.7965C47.1659 12.4243 46.9543 12.1303 46.6702 11.9144C46.3889 11.6956 46.0353 11.5862 45.6091 11.5862C45.2 11.5862 44.8563 11.6899 44.5779 11.8973C44.2995 12.1019 44.0892 12.3888 43.9472 12.7581C43.8051 13.1246 43.7341 13.5521 43.7341 14.0408Z" fill="black"/>
<path d="M38.5054 17.4499C37.8747 17.4499 37.3307 17.3107 36.8733 17.0323C36.4188 16.751 36.0679 16.359 35.8208 15.8561C35.5764 15.3504 35.4543 14.7624 35.4543 14.0919C35.4543 13.4215 35.5764 12.8306 35.8208 12.3192C36.0679 11.805 36.4117 11.4044 36.852 11.1175C37.2952 10.8277 37.8122 10.6828 38.4031 10.6828C38.7441 10.6828 39.0807 10.7396 39.4131 10.8533C39.7455 10.9669 40.048 11.1516 40.3208 11.4073C40.5935 11.6601 40.8108 11.9953 40.9728 12.4129C41.1347 12.8306 41.2156 13.3448 41.2156 13.9556V14.3817H36.1702V13.5124H40.1929C40.1929 13.1431 40.1191 12.8135 39.9713 12.5237C39.8264 12.234 39.6191 12.0053 39.3492 11.8377C39.0821 11.67 38.7668 11.5862 38.4031 11.5862C38.0026 11.5862 37.656 11.6857 37.3634 11.8845C37.0736 12.0806 36.8506 12.3362 36.6943 12.6516C36.5381 12.9669 36.46 13.305 36.46 13.6658V14.2453C36.46 14.7396 36.5452 15.1587 36.7156 15.5024C36.8889 15.8433 37.129 16.1033 37.4358 16.2823C37.7426 16.4584 38.0992 16.5465 38.5054 16.5465C38.7696 16.5465 39.0083 16.5095 39.2213 16.4357C39.4372 16.359 39.6233 16.2453 39.7796 16.0948C39.9358 15.9414 40.0566 15.751 40.1418 15.5237L41.1134 15.7965C41.0111 16.126 40.8392 16.4158 40.5978 16.6658C40.3563 16.9129 40.058 17.1061 39.7029 17.2453C39.3478 17.3817 38.9486 17.4499 38.5054 17.4499Z" fill="black"/>
<path d="M28.292 17.3135V8.58624H31.2409C31.9227 8.58624 32.4823 8.70272 32.9198 8.93567C33.3573 9.16579 33.6812 9.48255 33.8914 9.88596C34.1017 10.2894 34.2068 10.7482 34.2068 11.2624C34.2068 11.7766 34.1017 12.2325 33.8914 12.6303C33.6812 13.028 33.3588 13.3405 32.9241 13.5678C32.4894 13.7922 31.934 13.9044 31.2579 13.9044H28.8715V12.9499H31.2238C31.6897 12.9499 32.0647 12.8817 32.3488 12.7453C32.6357 12.609 32.8431 12.4158 32.971 12.1658C33.1017 11.9129 33.167 11.6118 33.167 11.2624C33.167 10.9129 33.1017 10.6075 32.971 10.3462C32.8403 10.0848 32.6315 9.88312 32.3445 9.74107C32.0576 9.59619 31.6784 9.52374 31.2068 9.52374H29.3488V17.3135H28.292ZM32.3999 13.3931L34.5477 17.3135H33.3204L31.2068 13.3931H32.3999Z" fill="black"/>
</svg>
